<svg width="27" height="3" viewBox="0 0 27 3" fill="none" xmlns="http://www.w3.org/2000/svg" shape-rendering="crispEdges">
    <rect width="1" height="1" fill="#D63C5E"/>
    <rect y="2" width="1" height="1" fill="#D63C5E"/>
    <rect x="5" y="1" width="1" height="1" fill="#D63C5E"/>
    <rect x="5" y="2" width="1" height="1" fill="#D63C5E"/>
    <rect x="7" y="2" width="1" height="1" fill="#D63C5E"/>
    <rect x="7" y="1" width="1" height="1" fill="#D63C5E"/>
    <rect x="8" y="2" width="1" height="1" fill="#D63C5E"/>
    <rect x="9" y="1" width="1" height="1" fill="#D63C5E"/>
    <rect x="19" width="1" height="1" fill="#D63C5E"/>
    <rect x="19" y="1" width="1" height="1" fill="#D63C5E"/>
    <rect x="19" y="2" width="1" height="1" fill="#D63C5E"/>
    <rect x="20" y="2" width="1" height="1" fill="#D63C5E"/>
    <rect x="22" y="1" width="1" height="1" fill="#D63C5E"/>
    <rect x="22" width="1" height="1" fill="#D63C5E"/>
    <rect x="22" y="2" width="1" height="1" fill="#D63C5E"/>
    <rect x="25" y="1" width="1" height="1" fill="#D63C5E"/>
    <rect x="26" y="2" width="1" height="1" fill="#D63C5E"/>
    <rect x="25" y="2" width="1" height="1" fill="#D63C5E"/>
    <rect x="24" y="1" width="1" height="1" fill="#D63C5E"/>
    <rect x="24" width="1" height="1" fill="#D63C5E"/>
    <rect x="24" y="2" width="1" height="1" fill="#D63C5E"/>
    <rect x="20" y="1" width="1" height="1" fill="#D63C5E"/>
    <rect x="17" width="1" height="1" fill="#D63C5E"/>
    <rect x="17" y="2" width="1" height="1" fill="#D63C5E"/>
    <rect x="14" y="1" width="1" height="1" fill="#D63C5E"/>
    <rect x="14" y="2" width="1" height="1" fill="#D63C5E"/>
    <rect x="15" y="1" width="1" height="1" fill="#D63C5E"/>
    <rect x="13" y="2" width="1" height="1" fill="#D63C5E"/>
    <rect x="11" width="1" height="1" fill="#D63C5E"/>
    <rect x="11" y="2" width="1" height="1" fill="#D63C5E"/>
    <rect x="4" y="2" width="1" height="1" fill="#D63C5E"/>
    <rect x="3" y="1" width="1" height="1" fill="#D63C5E"/>
    <rect x="2" y="1" width="1" height="1" fill="#D63C5E"/>
    <rect x="2" y="2" width="1" height="1" fill="#D63C5E"/>
</svg>
